/* XPM */
static char * open_chest2_xpm[] = {
"48 48 18 1",
" 	c #509B66",
".	c #000000",
"+	c #21110D",
"@	c #573A23",
"#	c #402717",
"$	c #B6BEC8",
"%	c #755338",
"&	c #AC7B5D",
"*	c #C1AC8F",
"=	c #503625",
"-	c #342319",
";	c #677598",
">	c #296640",
",	c #787E97",
"'	c #A4A8B5",
")	c #2C65B5",
"!	c #171C31",
"~	c #1D438A",
"                                                ",
"                                                ",
"                                                ",
"                                                ",
"                      ....  ........            ",
"                      ....  ........            ",
"         +++++++++......@@..##@@@@..+++         ",
"         +++++++++......@@..##@@@@..+++         ",
"         +++++++..@@@@##@@##@@@@....+++         ",
"      +++$$$$$$%..@@@@##@@##@@@@....$$$+++      ",
"      +++$$$$$..@@@@@@@@@@@@@@@@@@##..$+++      ",
"      +++$$$$$..@@@@@@@@@@@@@@@@@@##..$+++      ",
"   +++%%%+++..@@@@@@@@@@@@@@@@@@@@@@##..%%+++   ",
"   +++%%%+++..@@@@@@@@@@@@@@@@@@@@@@##..%%+++   ",
"   +++%%%+++..@@@@@@####@@@@@@##@@@@##..%%+++   ",
"   +++%%%+++..@@@@@@####@@@@@@##@@@@##..%%+++   ",
"   +++%%%+..##@@##&&&&##@@@@@@########..%%+++   ",
"   +++%%%+..##@@##&&&&##@@@@@@########..%%+++   ",
"   +++%%%+..####&&&&&&&&##@@@@####@@##..%%+++   ",
"   +++%%%+..####&&&&&&&&##@@@@####@@##..%%+++   ",
"   +++%%%+..##..++****++&&@@##&&@@@@##..%%+++   ",
"   +++===$..##..++****++&&@@##&&@@@@##..==+++   ",
"   +++===$$$....++****++**##&&&&@@####..==+++   ",
"   +++===$$$....++****++**##&&&&@@####..==+++   ",
"   +++---;;;;;..************&&&&####..;---+++   ",
"   +++---;;;;;..************&&&&####..;---+++   ",
"   +++---;;;;;..&&********&&&&####..;;;---+++   ",
"   +++---;;;;;..&&********&&&&####..;;;---+++   ",
"   +++---;;;;;;=..&&&&&&&&&&######..;;;---+++   ",
"   +++---;;;;;;=..&&&&&&&&&&######..;;;---+++   ",
">>>+++---;;;;;;=..##,,,,,,@@####..;;;;;---+++>>>",
">>>+++---;;;;;;=..##,,,,,,@@####..;;;;;---+++>>>",
">>>+++---;;;;;;=..##'',,,,@@@@##..;;;;;---+++>>>",
">>>+++---;;;;;;=..##'',,,,@@@@##..;;;;;---+++>>>",
">>>+++---;;;;;..&&##'''',,@@@@****..;;;---+++>>>",
">>>+++---;;;;;..&&##'''',,@@@@****..;;;---+++>>>",
">>>+++---;;;;;..&&##))))))@@@@****..;;;---+++>>>",
">>>+++---;;;;;..&&##))))))@@@@****..;;;---+++>>>",
">>>+++---;;;;;!!....))))~~))))~~..!!;;;---+++>>>",
">>>>>>+++;;;;;!!....))))~~))))~~..!!;;;+++>>>>>>",
">>>>>>+++;;;!!!!!!..@@##....@@##..!!!!;+++>>>>>>",
">>>>>>+++;;;!!!!!!..@@##....@@##..!!!!;+++>>>>>>",
"   >>>>>>>>>!!!!!!!!!!!!!!!!!!!!!!!!!!>>>>>>>   ",
"   >>>>>>>>>!!!!!!!!!!!!!!!!!!!!!!!!!!>>>>>>>   ",
"   >>>>>>>>>>>!!!!!!!!!!!!!!!!!!!!!!>>>>>>>>>   ",
"         >>>>>!!!!!!!!!!!!!!!!!!!!!!>>>         ",
"         >>>>>>>>>>>>>>>>>>>>>>>>>>>>>>         ",
"         >>>>>>>>>>>>>>>>>>>>>>>>>>>>>>         "};
