/* XPM */
static char * playerdead_xpm[] = {
"48 48 10 1",
" 	c #509B66",
".	c #000000",
"+	c #573A23",
"@	c #402717",
"#	c #AC7B5D",
"$	c #2C65B5",
"%	c #C1AC8F",
"&	c #1D438A",
"*	c #9A5C42",
"=	c #171C31",
"                                                ",
"                                                ",
"                                                ",
"                                                ",
"                                                ",
"                                                ",
"                                                ",
"                                                ",
"                                                ",
"                                                ",
"                                                ",
"                                                ",
"                    ........  ....              ",
"                    ........  ....              ",
"                    ..++++@@..++......          ",
"                    ..++++@@..++......          ",
"                    ....++++@@++@@++++..        ",
"                    ....++++@@++@@++++..        ",
"                  ..@@++++++++++++++++++..      ",
"                  ..@@++++++++++++++++++..      ",
"                ..@@++++++++++++++++++++++..    ",
"                ..@@++++++++++++++++++++++..    ",
"                ..@@++++@@++++++@@@@++++++..    ",
"                ..@@++++@@++++++@@@@++++++..    ",
"                ..@@@@@@@@++++++@@####@@++@@..  ",
"                ..@@@@@@@@++++++@@####@@++@@..  ",
"          ........@@++@@@@++++@@########@@@@..  ",
"          ........@@++@@@@++++@@########@@@@..  ",
"        ..$$++++++@@++++##@@++##..%%%%....@@..  ",
"        ..$$++++++@@++++##@@++##..%%%%....@@..  ",
"      ..@@&&@@++....@@++**##@@##%%%%%%##....    ",
"      ..@@&&@@++....@@++**##@@##%%%%%%##....    ",
"    ==..@@&&&&..%%%%..@@****##########....==    ",
"    ==..@@&&&&..%%%%..@@****##########....==    ",
"    ==========..%%%%..======================    ",
"    ==========..%%%%..======================    ",
"      ====================================      ",
"      ====================================      ",
"                                                ",
"                                                ",
"                                                ",
"                                                ",
"                                                ",
"                                                ",
"                                                ",
"                                                ",
"                                                ",
"                                                "};
