/* XPM */
static char * slime2_xpm[] = {
"48 48 10 1",
" 	c #509B66",
".	c #1D235D",
"+	c #425B9E",
"@	c #4D8AB3",
"#	c #65B1B8",
"$	c #FFFFFF",
"%	c #000000",
"&	c #33418A",
"*	c #9E2E46",
"=	c #171C31",
"                                                ",
"                                                ",
"                                                ",
"         .....................                  ",
"         .....................                  ",
"         .....................                  ",
"      ...+++@@@@@@@@@@@@@@@@@@...               ",
"      ...+++@@@@@@@@@@@@@@@@@@...               ",
"      ...+++@@@@@@@@@@@@@@@@@@...               ",
"   ...+++@@@@@@@@@############@@@...            ",
"   ...+++@@@@@@@@@############@@@...            ",
"   ...+++@@@@@@@@@############@@@...            ",
"   ...@@@@@@@@@##################+++...         ",
"   ...@@@@@@@@@##################+++...         ",
"   ...@@@@@@@@@##################+++...         ",
"   ...@@@@@@@@@######$$$%%%######%%%...         ",
"   ...@@@@@@@@@######$$$%%%######%%%...         ",
"   ...@@@@@@@@@######$$$%%%######%%%...         ",
"   ...@@@@@@#########%%%%%%######%%%@@@...      ",
"   ...@@@@@@#########%%%%%%######%%%@@@...      ",
"   ...@@@@@@#########%%%%%%######%%%@@@...      ",
"   ...@@@@@@########################@@@...      ",
"   ...@@@@@@########################@@@...      ",
"   ...@@@@@@########################@@@...      ",
"   ...+++@@@@@@######&&&&&&&&&&&&&&&@@@+++...   ",
"   ...+++@@@@@@######&&&&&&&&&&&&&&&@@@+++...   ",
"   ...+++@@@@@@######&&&&&&&&&&&&&&&@@@+++...   ",
"      ...++++++@@@&&&&&&******&&&&&&@@@+++...   ",
"      ...++++++@@@&&&&&&******&&&&&&@@@+++...   ",
"      ...++++++@@@&&&&&&******&&&&&&@@@+++...   ",
"      ===...++++++@@@@@@@@@@@@@@@@@@++++++...   ",
"      ===...++++++@@@@@@@@@@@@@@@@@@++++++...   ",
"      ===...++++++@@@@@@@@@@@@@@@@@@++++++...   ",
"   =========......+++++++++++++++++++++...===   ",
"   =========......+++++++++++++++++++++...===   ",
"   =========......+++++++++++++++++++++...===   ",
"   ===============.....................======   ",
"   ===============.....................======   ",
"   ===============.....................======   ",
"   ==========================================   ",
"   ==========================================   ",
"   ==========================================   ",
"      ====================================      ",
"      ====================================      ",
"      ====================================      ",
"                                                ",
"                                                ",
"                                                "};
