/* XPM */
static char * fence3_xpm[] = {
"48 48 6 1",
" 	c #509B66",
".	c #21110D",
"+	c #9D7658",
"@	c #755338",
"#	c #503625",
"$	c #171C31",
"                  ...+++++++++...               ",
"                  ...+++++++++...               ",
"                  ...+++++++++...               ",
"               .....................            ",
"               .....................            ",
"               .....................            ",
"            ...@@@+++++++++++++++@@@...         ",
"            ...@@@+++++++++++++++@@@...         ",
"            ...@@@+++++++++++++++@@@...         ",
"         ...@@@++++++@@@@@@@@@++++++@@@...      ",
"         ...@@@++++++@@@@@@@@@++++++@@@...      ",
"         ...@@@++++++@@@@@@@@@++++++@@@...      ",
"         ...@@@++++++@@@@@@@@@++++++@@@...      ",
"         ...@@@++++++@@@@@@@@@++++++@@@...      ",
"         ...@@@++++++@@@@@@@@@++++++@@@...      ",
"         ...###@@@+++++++++++++++@@@###...      ",
"         ...###@@@+++++++++++++++@@@###...      ",
"         ...###@@@+++++++++++++++@@@###...      ",
"         ......###@@@@@@@@@@@@@@@###......      ",
"         ......###@@@@@@@@@@@@@@@###......      ",
"         ......###@@@@@@@@@@@@@@@###......      ",
"            ...........................         ",
"            ...........................         ",
"            ...........................         ",
"            ...######@@@###@@@@@@###...         ",
"            ...######@@@###@@@@@@###...         ",
"            ...######@@@###@@@@@@###...         ",
"            ...###@@@+++++++++@@@###...         ",
"            ...###@@@+++++++++@@@###...         ",
"            ...###@@@+++++++++@@@###...         ",
"            ...###...+++++++++...###...         ",
"            ...###...+++++++++...###...         ",
"            ...###...+++++++++...###...         ",
"         $$$...###...+++++++++...###...$$$      ",
"         $$$...###...+++++++++...###...$$$      ",
"         $$$...###...+++++++++...###...$$$      ",
"         $$$...###...+++++++++...###...$$$      ",
"         $$$...###...+++++++++...###...$$$      ",
"         $$$...###...+++++++++...###...$$$      ",
"      $$$$$$$$$......+++++++++......$$$$$$$$$   ",
"      $$$$$$$$$......+++++++++......$$$$$$$$$   ",
"      $$$$$$$$$......+++++++++......$$$$$$$$$   ",
"            $$$$$$...+++++++++...$$$$$$         ",
"            $$$$$$...+++++++++...$$$$$$         ",
"            $$$$$$...+++++++++...$$$$$$         ",
"               $$$...+++++++++...$$$            ",
"               $$$...+++++++++...$$$            ",
"               $$$...+++++++++...$$$            "};
